<?xml version="1.0" standalone="no"?>
<!DOCTYPE svg PUBLIC "-//W3C//DTD SVG 20010904//EN"
 "http://www.w3.org/TR/2001/REC-SVG-20010904/DTD/svg10.dtd">
<svg version="1.0" xmlns="http://www.w3.org/2000/svg"
 width="427.000000pt" height="75.000000pt" viewBox="0 0 427.000000 75.000000"
 preserveAspectRatio="xMidYMid meet">

<g transform="translate(0.000000,75.000000) scale(0.100000,-0.100000)"
fill="#000000" stroke="none">
<path d="M1963 150 c0 -47 2 -66 4 -42 2 23 2 61 0 85 -2 23 -4 4 -4 -43z"/>
<path d="M3043 155 c0 -44 2 -61 4 -37 2 23 2 59 0 80 -2 20 -4 1 -4 -43z"/>
<path d="M3520 164 c0 -41 4 -63 10 -59 6 3 10 19 10 34 0 34 9 44 27 30 18
-16 16 -46 -4 -59 -16 -10 -16 -10 2 -8 15 2 21 12 23 37 4 35 -12 55 -35 46
-8 -3 -13 5 -13 20 0 14 -4 25 -10 25 -6 0 -10 -29 -10 -66z"/>
<path d="M940 160 l0 -60 34 0 c60 0 85 49 50 98 -11 15 -25 22 -50 22 l-34 0
0 -60z m76 13 c8 -32 -6 -57 -35 -61 -19 -3 -21 1 -21 42 0 42 2 46 25 46 18
0 26 -7 31 -27z"/>
<path d="M2110 160 c0 -33 4 -60 10 -60 6 0 10 11 10 25 0 21 5 25 30 25 25 0
30 -4 30 -25 0 -14 5 -25 10 -25 6 0 10 27 10 60 0 33 -4 60 -10 60 -5 0 -10
-11 -10 -25 0 -21 -5 -25 -30 -25 -25 0 -30 4 -30 25 0 14 -4 25 -10 25 -6 0
-10 -27 -10 -60z"/>
<path d="M3190 211 c0 -33 25 -111 36 -111 7 0 19 19 25 43 l13 42 9 -42 c13
-55 32 -55 46 1 6 24 13 51 17 60 3 9 2 16 -4 16 -5 0 -15 -21 -22 -47 l-13
-48 -14 48 c-8 26 -18 47 -23 47 -4 0 -11 -18 -15 -40 -9 -54 -22 -58 -30 -10
-6 35 -25 67 -25 41z"/>
<path d="M2528 197 c-3 -6 -3 -31 0 -54 3 -32 8 -43 21 -42 10 0 11 2 4 6 -17
6 -17 60 -1 65 9 3 8 9 -4 21 -11 12 -17 13 -20 4z"/>
<path d="M3848 197 c-3 -6 -3 -31 0 -54 3 -31 9 -43 20 -43 12 0 13 3 4 12
-16 16 -15 55 0 60 9 3 8 9 -4 21 -11 12 -17 13 -20 4z"/>
<path d="M1112 181 c-8 -5 -12 -22 -10 -42 3 -30 6 -34 33 -34 27 0 30 4 33
34 3 32 -9 51 -33 51 -5 0 -16 -4 -23 -9z m46 -45 c-2 -13 -10 -21 -23 -21
-23 0 -32 30 -14 51 16 19 41 -1 37 -30z"/>
<path d="M1234 181 c-9 -9 -3 -81 6 -81 6 0 10 16 10 35 0 28 4 35 20 35 16 0
20 -7 21 -37 2 -35 2 -35 6 -8 9 62 43 69 43 9 0 -19 5 -34 10 -34 11 0 13 60
2 76 -6 10 -109 14 -118 5z"/>
<path d="M1430 180 c0 -6 7 -10 16 -8 28 5 27 -19 -1 -26 -33 -8 -36 -46 -2
-45 12 0 16 3 10 6 -17 6 -16 33 1 33 7 0 17 -10 21 -22 7 -20 9 -17 12 16 3
25 0 42 -9 47 -18 12 -48 11 -48 -1z"/>
<path d="M1563 145 c0 -27 2 -38 4 -22 2 15 2 37 0 50 -2 12 -4 0 -4 -28z"/>
<path d="M1642 140 c1 -34 2 -38 5 -15 9 62 43 69 43 9 0 -19 5 -34 10 -34 12
0 13 59 2 77 -4 6 -19 10 -35 10 -25 -2 -27 -5 -25 -47z"/>
<path d="M1777 183 c-12 -12 -7 -41 8 -47 22 -8 18 -24 -7 -29 -20 -4 -19 -4
5 -6 38 -2 47 26 16 50 -21 16 -20 24 4 20 4 0 7 4 7 9 0 11 -23 14 -33 3z"/>
<path d="M2286 174 c-33 -32 -10 -79 36 -72 17 2 24 11 26 31 6 49 -30 73 -62
41z m47 -45 c-7 -27 -37 -20 -41 10 -5 30 19 47 34 25 7 -8 10 -24 7 -35z"/>
<path d="M2413 173 c-4 -11 1 -22 15 -31 28 -18 28 -29 0 -35 -20 -4 -19 -4 5
-6 21 -1 27 4 27 19 0 10 -7 23 -16 28 -9 5 -14 15 -10 21 4 6 12 9 17 6 5 -4
9 -1 9 4 0 18 -40 12 -47 -6z"/>
<path d="M2620 146 c0 -25 5 -46 10 -46 6 0 10 18 10 39 0 22 -4 43 -10 46 -6
4 -10 -12 -10 -39z"/>
<path d="M2700 143 c0 -24 5 -43 10 -43 6 0 10 16 10 35 0 24 5 35 15 35 10 0
15 -11 15 -35 0 -19 5 -35 11 -35 6 0 9 17 7 43 -3 40 -4 42 -35 42 -32 1 -33
0 -33 -42z"/>
<path d="M2844 178 c-5 -7 -9 -35 -9 -63 0 -45 3 -50 23 -53 23 -3 52 13 52
28 0 5 -15 14 -32 21 -30 11 -31 13 -10 16 19 4 42 36 42 59 0 10 -58 3 -66
-8z m42 -9 c10 -17 -13 -36 -27 -22 -12 12 -4 33 11 33 5 0 12 -5 16 -11z m4
-78 c0 -6 -5 -13 -10 -16 -15 -9 -43 3 -35 15 8 13 45 13 45 1z"/>
<path d="M3396 174 c-30 -29 -10 -75 32 -73 27 1 27 1 3 8 -37 10 -38 31 -2
31 32 0 41 16 19 38 -16 16 -33 15 -52 -4z m44 -15 c0 -5 -10 -9 -21 -9 -18 0
-19 2 -9 15 12 15 30 12 30 -6z"/>
<path d="M3653 173 c-4 -11 1 -22 15 -31 28 -18 28 -29 0 -35 -21 -4 -20 -4 3
-6 35 -1 45 24 17 43 -19 14 -17 43 3 31 5 -4 9 -1 9 4 0 18 -40 12 -47 -6z"/>
<path d="M3760 145 c0 -25 5 -45 10 -45 6 0 10 20 10 45 0 25 -4 45 -10 45 -5
0 -10 -20 -10 -45z"/>
<path d="M3951 176 c-7 -8 -11 -27 -9 -43 3 -24 7 -28 38 -29 26 -1 28 -1 8 3
-35 6 -37 33 -3 33 27 0 33 18 13 38 -16 16 -33 15 -47 -2z m39 -17 c0 -5 -10
-9 -21 -9 -18 0 -19 2 -9 15 12 15 30 12 30 -6z"/>
<path d="M4073 174 c-4 -11 2 -23 18 -35 l24 -18 -25 -10 c-25 -10 -25 -10 -2
-10 29 -1 41 28 19 44 -21 15 -22 39 -1 31 8 -3 12 -2 9 4 -10 16 -35 12 -42
-6z"/>
</g>
</svg>
